<?xml version="1.0" encoding="utf-8"?>
<!-- Generator: Adobe Illustrator 19.0.0, SVG Export Plug-In . SVG Version: 6.00 Build 0)  -->
<svg version="1.1" id="Слой_1" xmlns="http://www.w3.org/2000/svg" xmlns:xlink="http://www.w3.org/1999/xlink" x="0px" y="0px"
	 viewBox="0 0 300 100" style="enable-background:new 0 0 300 100;" xml:space="preserve">
<style type="text/css">
	.st0{fill:#FFFFFF;}
	.st1{fill:#FFFFFF;}
</style>
<g id="XMLID_84_">
	<path id="XMLID_166_" class="st0" d="M36,30.6h6L29.2,62.3h-6.7L9.8,30.6h5.9c0.6,0,1.2,0.1,1.5,0.4c0.4,0.3,0.7,0.7,0.9,1.1
		l6.1,17c0.3,0.7,0.6,1.5,0.8,2.4c0.3,0.9,0.5,1.8,0.8,2.8c0.2-1,0.4-1.9,0.7-2.8c0.3-0.9,0.5-1.7,0.8-2.4l6.1-17
		c0.2-0.4,0.4-0.8,0.9-1.1C34.8,30.7,35.4,30.6,36,30.6z M46.3,62.3h20.4v-5.7h-13v-7.6h10v-5.4h-10v-7.4h13v-5.7H46.3V62.3z
		 M92.2,51.2l6.7,11h-6.7c-1.2,0-2.1-0.5-2.7-1.4l-5.3-9.2c-0.2-0.4-0.5-0.7-0.8-0.9c-0.3-0.2-0.7-0.3-1.3-0.3h-1.9v11.7H73V30.6
		h10.3c2.3,0,4.2,0.2,5.9,0.7c1.6,0.5,2.9,1.1,4,2c1,0.8,1.8,1.8,2.2,3c0.5,1.1,0.7,2.4,0.7,3.7c0,1-0.1,2-0.4,2.9
		c-0.3,0.9-0.7,1.8-1.2,2.5c-0.5,0.8-1.2,1.5-2,2.1c-0.8,0.6-1.7,1.1-2.7,1.5c0.5,0.2,0.9,0.6,1.3,0.9
		C91.5,50.3,91.9,50.7,92.2,51.2z M88.9,40.5c0-1.4-0.5-2.5-1.4-3.3c-0.9-0.8-2.3-1.2-4.2-1.2h-3v9.4h3c1,0,1.9-0.1,2.6-0.4
		c0.7-0.3,1.3-0.6,1.7-1.1c0.4-0.4,0.8-1,1-1.6C88.8,41.8,88.9,41.2,88.9,40.5z M123.3,31c-0.4,0.3-0.7,0.7-0.9,1.1l-6.1,17
		c-0.3,0.7-0.6,1.5-0.8,2.4c-0.3,0.9-0.5,1.8-0.7,2.8c-0.2-1-0.5-1.9-0.8-2.8c-0.3-0.9-0.6-1.7-0.8-2.4l-6.1-17
		c-0.2-0.5-0.5-0.8-0.9-1.1c-0.4-0.3-0.9-0.4-1.5-0.4h-5.9l12.7,31.7h6.7l12.7-31.7h-6C124.2,30.6,123.7,30.7,123.3,31z M135.1,62.3
		h20.4v-5.7h-13v-7.6h10v-5.4h-10v-7.4h13v-5.7h-20.4V62.3z M183.2,54.2c-0.2-0.1-0.3-0.1-0.5-0.1c-0.2,0-0.4,0-0.6,0.1
		c-0.2,0.1-0.4,0.2-0.6,0.4c-0.4,0.4-0.9,0.7-1.3,1c-0.4,0.3-0.9,0.5-1.3,0.6c-0.5,0.2-1,0.3-1.5,0.3c-0.6,0.1-1.2,0.1-1.8,0.1
		c-1.2,0-2.2-0.2-3.3-0.7c-1-0.5-1.9-1.1-2.7-2c-0.8-0.9-1.4-1.9-1.8-3.2c-0.4-1.3-0.7-2.7-0.7-4.3c0-1.6,0.2-3,0.6-4.3
		c0.4-1.3,1-2.3,1.7-3.2c0.7-0.9,1.6-1.5,2.6-2c1-0.4,2.1-0.7,3.3-0.7c0.8,0,1.4,0.1,2,0.2c0.6,0.1,1.1,0.3,1.5,0.4
		c0.4,0.2,0.8,0.3,1.1,0.5c0.3,0.2,0.6,0.4,0.9,0.5c0.3,0.2,0.5,0.3,0.7,0.4c0.2,0.1,0.5,0.2,0.7,0.2c0.4,0,0.7-0.1,0.9-0.3
		s0.4-0.4,0.6-0.6l2.5-3.3c-0.6-0.6-1.3-1.2-2-1.7c-0.8-0.5-1.6-1-2.5-1.3c-0.9-0.4-1.9-0.7-2.9-0.9c-1.1-0.2-2.2-0.3-3.4-0.3
		c-2.3,0-4.5,0.4-6.4,1.2c-1.9,0.8-3.6,1.9-5,3.4c-1.4,1.4-2.5,3.1-3.2,5.1c-0.8,2-1.2,4.2-1.2,6.5c0,2.3,0.4,4.5,1.1,6.5
		c0.7,2,1.7,3.7,3.1,5.1c1.3,1.4,2.9,2.6,4.9,3.4c1.9,0.8,4.1,1.2,6.5,1.2c2.6,0,4.9-0.4,6.8-1.3c1.9-0.8,3.5-2.1,4.8-3.8l-2.9-3.1
		C183.5,54.3,183.3,54.2,183.2,54.2z M211.9,43.8H199V30.6h-7.4v31.7h7.4V48.9h12.9v13.4h7.4V30.6h-7.4V43.8z M244.8,46.1
		c-0.4-0.4-1-0.6-1.5-0.8c0.8-0.4,1.5-1,2.2-1.9l9.4-12.8h-6.4c-0.7,0-1.3,0.1-1.8,0.3c-0.5,0.2-0.9,0.6-1.4,1.1l-7.1,10.4
		c-0.5,0.7-1.3,1-2.4,1h-1.2V30.6h-7.4v31.7h7.4V48.8h1.8c0.7,0,1.2,0.1,1.6,0.3c0.4,0.2,0.7,0.5,1,0.9l7.2,11
		c0.1,0.2,0.3,0.4,0.5,0.6c0.2,0.2,0.3,0.3,0.6,0.4c0.2,0.1,0.5,0.2,0.8,0.3c0.3,0.1,0.7,0.1,1.1,0.1h6.6l-9.6-14.7
		C245.7,47,245.3,46.5,244.8,46.1z M290.2,62.3h-5.7c-0.6,0-1.2-0.1-1.5-0.4c-0.4-0.3-0.7-0.7-0.9-1.1l-1.9-5.5h-12.1l-1.9,5.5
		c-0.2,0.4-0.4,0.8-0.9,1.1c-0.4,0.3-0.9,0.5-1.5,0.5h-5.7l12.3-31.7h7.5L290.2,62.3z M278.5,50.1l-2.9-8.7
		c-0.2-0.6-0.4-1.2-0.7-1.9c-0.2-0.7-0.5-1.6-0.7-2.4c-0.2,0.9-0.5,1.7-0.7,2.5c-0.2,0.8-0.5,1.4-0.7,2l-2.9,8.6H278.5z"/>
	<g id="XMLID_137_">
		<path id="XMLID_71_" class="st0" d="M54.5,81.7c0,0-0.1,0-0.1,0.1c-0.1,0.1-0.2,0.2-0.3,0.2c-0.1,0.1-0.2,0.1-0.3,0.1
			c-0.1,0-0.2,0.1-0.3,0.1c-0.1,0-0.3,0-0.4,0c-0.3,0-0.5,0-0.7-0.1c-0.2-0.1-0.4-0.2-0.6-0.4c-0.2-0.2-0.3-0.4-0.4-0.6
			c-0.1-0.3-0.1-0.5-0.1-0.9c0-0.3,0-0.6,0.1-0.9c0.1-0.3,0.2-0.5,0.4-0.7c0.2-0.2,0.4-0.3,0.6-0.4c0.2-0.1,0.5-0.1,0.7-0.1
			c0.2,0,0.4,0,0.6,0.1c0.2,0,0.3,0.1,0.4,0.2c0.1,0.1,0.2,0.1,0.2,0.2c0.1,0,0.1,0.1,0.2,0.1c0,0,0.1,0,0.1,0c0,0,0,0,0.1-0.1
			l0.2-0.3c-0.2-0.2-0.5-0.4-0.8-0.5c-0.3-0.1-0.6-0.2-1-0.2c-0.4,0-0.7,0.1-1,0.2c-0.3,0.1-0.6,0.3-0.8,0.5
			c-0.2,0.2-0.4,0.5-0.5,0.8c-0.1,0.3-0.2,0.7-0.2,1.1c0,0.4,0.1,0.8,0.2,1.1c0.1,0.3,0.3,0.6,0.5,0.8c0.2,0.2,0.5,0.4,0.8,0.5
			c0.3,0.1,0.6,0.2,1,0.2c0.4,0,0.8-0.1,1.1-0.2c0.3-0.1,0.6-0.3,0.8-0.6l-0.3-0.3C54.5,81.7,54.5,81.7,54.5,81.7z"/>
		<polygon id="XMLID_70_" class="st0" points="65.2,82.8 65.9,82.8 65.9,78.1 68.5,78.1 68.5,82.8 69.2,82.8 69.2,77.5 65.2,77.5 		
			"/>
		<path id="XMLID_161_" class="st0" d="M83.1,78c-0.2-0.1-0.4-0.3-0.6-0.3c-0.2-0.1-0.5-0.1-0.9-0.1h-1.5v5.2h0.7v-2h0.8
			c0.3,0,0.6,0,0.8-0.1c0.2-0.1,0.4-0.2,0.6-0.3c0.2-0.1,0.3-0.3,0.4-0.5c0.1-0.2,0.1-0.4,0.1-0.7c0-0.2,0-0.5-0.1-0.7
			C83.4,78.3,83.2,78.1,83.1,78z M82.8,79.6c-0.1,0.1-0.1,0.2-0.2,0.3c-0.1,0.1-0.2,0.2-0.4,0.2c-0.2,0.1-0.3,0.1-0.5,0.1h-0.8v-2.2
			h0.8c0.4,0,0.7,0.1,0.9,0.3c0.2,0.2,0.3,0.4,0.3,0.8C82.9,79.3,82.8,79.5,82.8,79.6z"/>
		<path id="XMLID_158_" class="st0" d="M95.1,77.5L93,82.8h0.5c0.1,0,0.1,0,0.2-0.1c0,0,0.1-0.1,0.1-0.1l0.5-1.3h2.4l0.5,1.3
			c0,0,0,0.1,0.1,0.1c0,0,0.1,0,0.2,0h0.5l-2.1-5.2H95.1z M94.4,80.8l0.8-2.1c0.1-0.1,0.1-0.3,0.2-0.5c0,0.1,0.1,0.2,0.1,0.3
			c0,0.1,0.1,0.2,0.1,0.2l0.8,2.1H94.4z"/>
		<path id="XMLID_154_" class="st0" d="M110.6,80.1c0.2-0.1,0.3-0.1,0.4-0.2c0.1-0.1,0.2-0.2,0.3-0.3c0.1-0.1,0.1-0.2,0.2-0.3
			c0-0.1,0.1-0.2,0.1-0.4c0-0.2,0-0.4-0.1-0.6c-0.1-0.2-0.2-0.3-0.3-0.4c-0.1-0.1-0.3-0.2-0.6-0.3c-0.2-0.1-0.5-0.1-0.8-0.1h-1.7
			v5.2h1.9c0.3,0,0.6,0,0.8-0.1c0.2-0.1,0.4-0.2,0.6-0.3c0.2-0.1,0.3-0.3,0.4-0.5c0.1-0.2,0.1-0.4,0.1-0.6c0-0.3-0.1-0.6-0.3-0.8
			C111.3,80.3,111,80.1,110.6,80.1z M108.8,78.1h1c0.4,0,0.7,0.1,0.9,0.2c0.2,0.1,0.3,0.4,0.3,0.7c0,0.1,0,0.3-0.1,0.4
			c0,0.1-0.1,0.2-0.2,0.3c-0.1,0.1-0.2,0.1-0.4,0.2c-0.1,0-0.3,0.1-0.5,0.1h-0.9V78.1z M111,81.6c0,0.1-0.1,0.2-0.2,0.3
			c-0.1,0.1-0.2,0.1-0.4,0.2c-0.1,0-0.3,0.1-0.5,0.1h-1.1v-1.8h1.1c0.4,0,0.7,0.1,0.9,0.2c0.2,0.2,0.3,0.4,0.3,0.6
			C111.1,81.4,111,81.5,111,81.6z"/>
		<path id="XMLID_62_" class="st0" d="M125.8,77.6c-0.1,0-0.1,0.1-0.1,0.2l-2.5,3.6c0,0.1-0.1,0.2-0.1,0.3c0,0.1-0.1,0.2-0.1,0.3
			c0-0.1,0-0.3,0-0.4c0-0.1,0-0.2,0-0.3v-3.7h-0.7v5.2h0.5c0.1,0,0.1,0,0.2-0.1c0.1,0,0.1-0.1,0.1-0.2l2.5-3.6
			c0-0.1,0.1-0.2,0.1-0.2c0-0.1,0.1-0.2,0.1-0.3c0,0.1,0,0.2,0,0.4c0,0.1,0,0.2,0,0.3v3.7h0.7v-5.2H126
			C126,77.5,125.9,77.5,125.8,77.6z"/>
		<path id="XMLID_61_" class="st0" d="M152.5,81.7c0,0-0.1,0-0.1,0.1c-0.1,0.1-0.2,0.2-0.3,0.2c-0.1,0.1-0.2,0.1-0.3,0.1
			c-0.1,0-0.2,0.1-0.3,0.1c-0.1,0-0.3,0-0.4,0c-0.2,0-0.5,0-0.7-0.1c-0.2-0.1-0.4-0.2-0.6-0.4c-0.2-0.2-0.3-0.4-0.4-0.6
			c-0.1-0.2-0.2-0.5-0.2-0.8h2.6v-0.5h-2.6c0-0.3,0.1-0.5,0.2-0.7c0.1-0.2,0.2-0.4,0.4-0.5c0.2-0.2,0.3-0.3,0.6-0.3
			c0.2-0.1,0.4-0.1,0.7-0.1c0.2,0,0.4,0,0.6,0.1c0.2,0,0.3,0.1,0.4,0.2c0.1,0.1,0.2,0.1,0.2,0.2c0.1,0,0.1,0.1,0.2,0.1
			c0,0,0.1,0,0.1,0c0,0,0,0,0.1-0.1l0.2-0.3c-0.2-0.2-0.5-0.4-0.8-0.5c-0.3-0.1-0.6-0.2-1-0.2c-0.4,0-0.7,0.1-1,0.2
			c-0.3,0.1-0.6,0.3-0.8,0.5c-0.2,0.2-0.4,0.5-0.5,0.8c-0.1,0.3-0.2,0.7-0.2,1.1c0,0.4,0.1,0.8,0.2,1.1c0.1,0.3,0.3,0.6,0.5,0.8
			c0.2,0.2,0.5,0.4,0.8,0.5c0.3,0.1,0.6,0.2,1,0.2c0.4,0,0.8-0.1,1.1-0.2c0.3-0.1,0.6-0.3,0.8-0.6l-0.3-0.3
			C152.5,81.7,152.5,81.7,152.5,81.7z"/>
		<path id="XMLID_149_" class="st0" d="M167.3,77.5h-3.1c0,0.6,0,1.1-0.1,1.6c0,0.4-0.1,0.8-0.1,1.2c0,0.3-0.1,0.6-0.2,0.8
			c-0.1,0.2-0.1,0.4-0.2,0.6c-0.1,0.2-0.1,0.3-0.2,0.4c-0.1,0.1-0.2,0.1-0.2,0.2h-0.5V84h0.4c0.1,0,0.1,0,0.2-0.1
			c0,0,0.1-0.1,0.1-0.2v-1.1h4.2V84h0.4c0.1,0,0.1,0,0.2-0.1c0,0,0.1-0.1,0.1-0.2v-1.6h-0.9V77.5z M166.6,82.2H164
			c0.1-0.1,0.2-0.3,0.3-0.5c0.1-0.2,0.2-0.5,0.2-0.8c0.1-0.3,0.1-0.7,0.2-1.2c0.1-0.5,0.1-1,0.1-1.6h1.7V82.2z"/>
		<polygon id="XMLID_58_" class="st0" points="182,79.9 179.2,79.9 179.2,77.5 178.5,77.5 178.5,82.8 179.2,82.8 179.2,80.4 
			182,80.4 182,82.8 182.8,82.8 182.8,77.5 182,77.5 		"/>
		<path id="XMLID_145_" class="st0" d="M195,77.5l-2.1,5.2h0.5c0.1,0,0.1,0,0.2-0.1c0,0,0.1-0.1,0.1-0.1l0.5-1.3h2.4l0.5,1.3
			c0,0,0,0.1,0.1,0.1c0,0,0.1,0,0.2,0h0.5l-2.1-5.2H195z M194.4,80.8l0.8-2.1c0.1-0.1,0.1-0.3,0.2-0.5c0,0.1,0.1,0.2,0.1,0.3
			c0,0.1,0.1,0.2,0.1,0.2l0.8,2.1H194.4z"/>
		<path id="XMLID_142_" class="st0" d="M214,78.2c-0.2-0.2-0.5-0.4-0.8-0.6c-0.3-0.1-0.6-0.2-1-0.2c-0.3,0-0.6,0.1-0.9,0.2
			c-0.3,0.1-0.5,0.3-0.7,0.5c-0.2,0.2-0.4,0.5-0.5,0.8c-0.1,0.3-0.2,0.6-0.2,1h-1.1v-2.3h-0.7v5.2h0.7v-2.3h1.1c0,0.4,0.1,0.7,0.2,1
			c0.1,0.3,0.3,0.5,0.5,0.8c0.2,0.2,0.4,0.4,0.7,0.5c0.3,0.1,0.6,0.2,0.9,0.2c0.4,0,0.7-0.1,1-0.2c0.3-0.1,0.5-0.3,0.8-0.5
			c0.2-0.2,0.4-0.5,0.5-0.8c0.1-0.3,0.2-0.7,0.2-1.1c0-0.4-0.1-0.8-0.2-1.1C214.4,78.7,214.2,78.5,214,78.2z M213.8,81
			c-0.1,0.3-0.2,0.5-0.3,0.7c-0.1,0.2-0.3,0.3-0.5,0.4c-0.2,0.1-0.4,0.1-0.7,0.1c-0.3,0-0.5,0-0.7-0.1c-0.2-0.1-0.4-0.2-0.5-0.4
			c-0.1-0.2-0.3-0.4-0.3-0.7c-0.1-0.3-0.1-0.5-0.1-0.9c0-0.3,0-0.6,0.1-0.9c0.1-0.3,0.2-0.5,0.3-0.7c0.1-0.2,0.3-0.3,0.5-0.4
			c0.2-0.1,0.4-0.1,0.7-0.1c0.3,0,0.5,0,0.7,0.1c0.2,0.1,0.4,0.2,0.5,0.4c0.1,0.2,0.3,0.4,0.3,0.7c0.1,0.3,0.1,0.5,0.1,0.9
			C213.9,80.5,213.9,80.8,213.8,81z"/>
		<polygon id="XMLID_53_" class="st0" points="224.4,78.1 226.1,78.1 226.1,82.8 226.8,82.8 226.8,78.1 228.5,78.1 228.5,77.5 
			224.4,77.5 		"/>
		<path id="XMLID_138_" class="st0" d="M242.3,80.6c-0.1-0.2-0.2-0.3-0.3-0.4c-0.2-0.1-0.3-0.2-0.6-0.3c-0.2-0.1-0.5-0.1-0.8-0.1h-1
			v-2.3h-0.7v5.2h1.7c0.3,0,0.6,0,0.8-0.1c0.2-0.1,0.4-0.2,0.6-0.3c0.2-0.1,0.3-0.3,0.4-0.5c0.1-0.2,0.1-0.4,0.1-0.7
			C242.4,81,242.3,80.8,242.3,80.6z M241.6,81.6c0,0.1-0.1,0.2-0.2,0.3c-0.1,0.1-0.2,0.1-0.4,0.2c-0.1,0-0.3,0.1-0.5,0.1h-1v-1.9h1
			c0.2,0,0.4,0,0.5,0.1c0.1,0,0.3,0.1,0.4,0.2c0.1,0.1,0.2,0.2,0.2,0.3c0,0.1,0.1,0.2,0.1,0.4C241.7,81.4,241.6,81.5,241.6,81.6z"/>
	</g>
	<g id="XMLID_111_">
		<path id="XMLID_50_" class="st1" d="M25.6,15.7c0.3,0,0.6-0.3,0.6-0.6v-3.5c0-0.3-0.3-0.6-0.6-0.6c-0.3,0-0.6,0.3-0.6,0.6v3.5
			C25,15.4,25.3,15.7,25.6,15.7z"/>
		<path id="XMLID_49_" class="st1" d="M25.6,8.7c0.3,0,0.6-0.3,0.6-0.6V5.7h2.4c0.3,0,0.6-0.3,0.6-0.6c0-0.3-0.3-0.6-0.6-0.6h-3
			c-0.3,0-0.6,0.3-0.6,0.6v3C25,8.5,25.3,8.7,25.6,8.7z"/>
		<path id="XMLID_48_" class="st1" d="M115.3,4.5h-6.2c-0.3,0-0.6,0.3-0.6,0.6c0,0.3,0.3,0.6,0.6,0.6h6.2c0.3,0,0.6-0.3,0.6-0.6
			C116,4.7,115.7,4.5,115.3,4.5z"/>
		<path id="XMLID_47_" class="st1" d="M103,4.5h-6.2c-0.3,0-0.6,0.3-0.6,0.6c0,0.3,0.3,0.6,0.6,0.6h6.2c0.3,0,0.6-0.3,0.6-0.6
			C103.6,4.7,103.3,4.5,103,4.5z"/>
		<path id="XMLID_46_" class="st1" d="M140.1,4.5h-6.2c-0.3,0-0.6,0.3-0.6,0.6c0,0.3,0.3,0.6,0.6,0.6h6.2c0.3,0,0.6-0.3,0.6-0.6
			C140.7,4.7,140.4,4.5,140.1,4.5z"/>
		<path id="XMLID_45_" class="st1" d="M127.7,4.5h-6.2c-0.3,0-0.6,0.3-0.6,0.6c0,0.3,0.3,0.6,0.6,0.6h6.2c0.3,0,0.6-0.3,0.6-0.6
			C128.3,4.7,128.1,4.5,127.7,4.5z"/>
		<path id="XMLID_44_" class="st1" d="M78.2,4.5H72c-0.3,0-0.6,0.3-0.6,0.6c0,0.3,0.3,0.6,0.6,0.6h6.2c0.3,0,0.6-0.3,0.6-0.6
			C78.8,4.7,78.5,4.5,78.2,4.5z"/>
		<path id="XMLID_43_" class="st1" d="M41,4.5h-6.2c-0.3,0-0.6,0.3-0.6,0.6c0,0.3,0.3,0.6,0.6,0.6H41c0.3,0,0.6-0.3,0.6-0.6
			C41.7,4.7,41.4,4.5,41,4.5z"/>
		<path id="XMLID_42_" class="st1" d="M53.4,4.5h-6.2c-0.3,0-0.6,0.3-0.6,0.6c0,0.3,0.3,0.6,0.6,0.6h6.2c0.3,0,0.6-0.3,0.6-0.6
			C54,4.7,53.8,4.5,53.4,4.5z"/>
		<path id="XMLID_41_" class="st1" d="M65.8,4.5h-6.2c-0.3,0-0.6,0.3-0.6,0.6c0,0.3,0.3,0.6,0.6,0.6h6.2c0.3,0,0.6-0.3,0.6-0.6
			C66.4,4.7,66.1,4.5,65.8,4.5z"/>
		<path id="XMLID_40_" class="st1" d="M90.6,4.5h-6.2c-0.3,0-0.6,0.3-0.6,0.6c0,0.3,0.3,0.6,0.6,0.6h6.2c0.3,0,0.6-0.3,0.6-0.6
			C91.2,4.7,90.9,4.5,90.6,4.5z"/>
		<path id="XMLID_39_" class="st1" d="M239.2,4.5H233c-0.3,0-0.6,0.3-0.6,0.6c0,0.3,0.3,0.6,0.6,0.6h6.2c0.3,0,0.6-0.3,0.6-0.6
			C239.8,4.7,239.5,4.5,239.2,4.5z"/>
		<path id="XMLID_38_" class="st1" d="M214.4,4.5h-6.2c-0.3,0-0.6,0.3-0.6,0.6c0,0.3,0.3,0.6,0.6,0.6h6.2c0.3,0,0.6-0.3,0.6-0.6
			C215,4.7,214.7,4.5,214.4,4.5z"/>
		<path id="XMLID_37_" class="st1" d="M226.8,4.5h-6.2c-0.3,0-0.6,0.3-0.6,0.6c0,0.3,0.3,0.6,0.6,0.6h6.2c0.3,0,0.6-0.3,0.6-0.6
			C227.4,4.7,227.1,4.5,226.8,4.5z"/>
		<path id="XMLID_36_" class="st1" d="M152.5,4.5h-6.2c-0.3,0-0.6,0.3-0.6,0.6c0,0.3,0.3,0.6,0.6,0.6h6.2c0.3,0,0.6-0.3,0.6-0.6
			C153.1,4.7,152.8,4.5,152.5,4.5z"/>
		<path id="XMLID_35_" class="st1" d="M263.9,4.5h-6.2c-0.3,0-0.6,0.3-0.6,0.6c0,0.3,0.3,0.6,0.6,0.6h6.2c0.3,0,0.6-0.3,0.6-0.6
			C264.5,4.7,264.3,4.5,263.9,4.5z"/>
		<path id="XMLID_34_" class="st1" d="M251.5,4.5h-6.2c-0.3,0-0.6,0.3-0.6,0.6c0,0.3,0.3,0.6,0.6,0.6h6.2c0.3,0,0.6-0.3,0.6-0.6
			C252.2,4.7,251.9,4.5,251.5,4.5z"/>
		<path id="XMLID_33_" class="st1" d="M177.2,4.5h-6.2c-0.3,0-0.6,0.3-0.6,0.6c0,0.3,0.3,0.6,0.6,0.6h6.2c0.3,0,0.6-0.3,0.6-0.6
			C177.9,4.7,177.6,4.5,177.2,4.5z"/>
		<path id="XMLID_32_" class="st1" d="M164.9,4.5h-6.2c-0.3,0-0.6,0.3-0.6,0.6c0,0.3,0.3,0.6,0.6,0.6h6.2c0.3,0,0.6-0.3,0.6-0.6
			C165.5,4.7,165.2,4.5,164.9,4.5z"/>
		<path id="XMLID_31_" class="st1" d="M189.6,4.5h-6.2c-0.3,0-0.6,0.3-0.6,0.6c0,0.3,0.3,0.6,0.6,0.6h6.2c0.3,0,0.6-0.3,0.6-0.6
			C190.2,4.7,190,4.5,189.6,4.5z"/>
		<path id="XMLID_30_" class="st1" d="M202,4.5h-6.2c-0.3,0-0.6,0.3-0.6,0.6c0,0.3,0.3,0.6,0.6,0.6h6.2c0.3,0,0.6-0.3,0.6-0.6
			C202.6,4.7,202.3,4.5,202,4.5z"/>
		<path id="XMLID_29_" class="st1" d="M270.1,5.7h2.4v2.4c0,0.3,0.3,0.6,0.6,0.6c0.3,0,0.6-0.3,0.6-0.6v-3c0-0.3-0.3-0.6-0.6-0.6h-3
			c-0.3,0-0.6,0.3-0.6,0.6C269.5,5.4,269.8,5.7,270.1,5.7z"/>
		<path id="XMLID_28_" class="st1" d="M273.2,11c-0.3,0-0.6,0.3-0.6,0.6v3.5c0,0.3,0.3,0.6,0.6,0.6c0.3,0,0.6-0.3,0.6-0.6v-3.5
			C273.8,11.3,273.5,11,273.2,11z"/>
		<circle id="XMLID_27_" class="st1" cx="25.6" cy="21.4" r="3.7"/>
		<circle id="XMLID_26_" class="st1" cx="273.2" cy="21.4" r="3.7"/>
	</g>
	<g id="XMLID_85_">
		<path id="XMLID_25_" class="st1" d="M273.2,80c-0.3,0-0.6,0.3-0.6,0.6v5.6c0,0.3,0.3,0.6,0.6,0.6c0.3,0,0.6-0.3,0.6-0.6v-5.6
			C273.8,80.2,273.5,80,273.2,80z"/>
		<path id="XMLID_24_" class="st1" d="M273.2,91.3c-0.3,0-0.6,0.3-0.6,0.6v2.4h-2.4c-0.3,0-0.6,0.3-0.6,0.6c0,0.3,0.3,0.6,0.6,0.6h3
			c0.3,0,0.6-0.3,0.6-0.6v-3C273.8,91.5,273.5,91.3,273.2,91.3z"/>
		<path id="XMLID_23_" class="st1" d="M115.3,94.3h-6.2c-0.3,0-0.6,0.3-0.6,0.6c0,0.3,0.3,0.6,0.6,0.6h6.2c0.3,0,0.6-0.3,0.6-0.6
			C116,94.6,115.7,94.3,115.3,94.3z"/>
		<path id="XMLID_22_" class="st1" d="M103,94.3h-6.2c-0.3,0-0.6,0.3-0.6,0.6c0,0.3,0.3,0.6,0.6,0.6h6.2c0.3,0,0.6-0.3,0.6-0.6
			C103.6,94.6,103.3,94.3,103,94.3z"/>
		<path id="XMLID_21_" class="st1" d="M140.1,94.3h-6.2c-0.3,0-0.6,0.3-0.6,0.6c0,0.3,0.3,0.6,0.6,0.6h6.2c0.3,0,0.6-0.3,0.6-0.6
			C140.7,94.6,140.4,94.3,140.1,94.3z"/>
		<path id="XMLID_20_" class="st1" d="M90.6,94.3h-6.2c-0.3,0-0.6,0.3-0.6,0.6c0,0.3,0.3,0.6,0.6,0.6h6.2c0.3,0,0.6-0.3,0.6-0.6
			C91.2,94.6,90.9,94.3,90.6,94.3z"/>
		<path id="XMLID_19_" class="st1" d="M65.8,94.3h-6.2c-0.3,0-0.6,0.3-0.6,0.6c0,0.3,0.3,0.6,0.6,0.6h6.2c0.3,0,0.6-0.3,0.6-0.6
			C66.4,94.6,66.1,94.3,65.8,94.3z"/>
		<path id="XMLID_18_" class="st1" d="M78.2,94.3H72c-0.3,0-0.6,0.3-0.6,0.6c0,0.3,0.3,0.6,0.6,0.6h6.2c0.3,0,0.6-0.3,0.6-0.6
			C78.8,94.6,78.5,94.3,78.2,94.3z"/>
		<path id="XMLID_17_" class="st1" d="M41,94.3h-6.2c-0.3,0-0.6,0.3-0.6,0.6c0,0.3,0.3,0.6,0.6,0.6H41c0.3,0,0.6-0.3,0.6-0.6
			C41.7,94.6,41.4,94.3,41,94.3z"/>
		<path id="XMLID_16_" class="st1" d="M53.4,94.3h-6.2c-0.3,0-0.6,0.3-0.6,0.6c0,0.3,0.3,0.6,0.6,0.6h6.2c0.3,0,0.6-0.3,0.6-0.6
			C54,94.6,53.8,94.3,53.4,94.3z"/>
		<path id="XMLID_15_" class="st1" d="M152.5,94.3h-6.2c-0.3,0-0.6,0.3-0.6,0.6c0,0.3,0.3,0.6,0.6,0.6h6.2c0.3,0,0.6-0.3,0.6-0.6
			C153.1,94.6,152.8,94.3,152.5,94.3z"/>
		<path id="XMLID_14_" class="st1" d="M127.7,94.3h-6.2c-0.3,0-0.6,0.3-0.6,0.6c0,0.3,0.3,0.6,0.6,0.6h6.2c0.3,0,0.6-0.3,0.6-0.6
			C128.3,94.6,128.1,94.3,127.7,94.3z"/>
		<path id="XMLID_13_" class="st1" d="M226.8,94.3h-6.2c-0.3,0-0.6,0.3-0.6,0.6c0,0.3,0.3,0.6,0.6,0.6h6.2c0.3,0,0.6-0.3,0.6-0.6
			C227.4,94.6,227.1,94.3,226.8,94.3z"/>
		<path id="XMLID_12_" class="st1" d="M239.2,94.3H233c-0.3,0-0.6,0.3-0.6,0.6c0,0.3,0.3,0.6,0.6,0.6h6.2c0.3,0,0.6-0.3,0.6-0.6
			C239.8,94.6,239.5,94.3,239.2,94.3z"/>
		<path id="XMLID_11_" class="st1" d="M251.5,94.3h-6.2c-0.3,0-0.6,0.3-0.6,0.6c0,0.3,0.3,0.6,0.6,0.6h6.2c0.3,0,0.6-0.3,0.6-0.6
			C252.2,94.6,251.9,94.3,251.5,94.3z"/>
		<path id="XMLID_10_" class="st1" d="M263.9,94.3h-6.2c-0.3,0-0.6,0.3-0.6,0.6c0,0.3,0.3,0.6,0.6,0.6h6.2c0.3,0,0.6-0.3,0.6-0.6
			C264.5,94.6,264.3,94.3,263.9,94.3z"/>
		<path id="XMLID_9_" class="st1" d="M177.2,94.3h-6.2c-0.3,0-0.6,0.3-0.6,0.6c0,0.3,0.3,0.6,0.6,0.6h6.2c0.3,0,0.6-0.3,0.6-0.6
			C177.9,94.6,177.6,94.3,177.2,94.3z"/>
		<path id="XMLID_8_" class="st1" d="M214.4,94.3h-6.2c-0.3,0-0.6,0.3-0.6,0.6c0,0.3,0.3,0.6,0.6,0.6h6.2c0.3,0,0.6-0.3,0.6-0.6
			C215,94.6,214.7,94.3,214.4,94.3z"/>
		<path id="XMLID_7_" class="st1" d="M189.6,94.3h-6.2c-0.3,0-0.6,0.3-0.6,0.6c0,0.3,0.3,0.6,0.6,0.6h6.2c0.3,0,0.6-0.3,0.6-0.6
			C190.2,94.6,190,94.3,189.6,94.3z"/>
		<path id="XMLID_6_" class="st1" d="M164.9,94.3h-6.2c-0.3,0-0.6,0.3-0.6,0.6c0,0.3,0.3,0.6,0.6,0.6h6.2c0.3,0,0.6-0.3,0.6-0.6
			C165.5,94.6,165.2,94.3,164.9,94.3z"/>
		<path id="XMLID_5_" class="st1" d="M202,94.3h-6.2c-0.3,0-0.6,0.3-0.6,0.6c0,0.3,0.3,0.6,0.6,0.6h6.2c0.3,0,0.6-0.3,0.6-0.6
			C202.6,94.6,202.3,94.3,202,94.3z"/>
		<path id="XMLID_4_" class="st1" d="M28.7,94.3h-2.4v-2.4c0-0.3-0.3-0.6-0.6-0.6c-0.3,0-0.6,0.3-0.6,0.6v3c0,0.3,0.3,0.6,0.6,0.6h3
			c0.3,0,0.6-0.3,0.6-0.6C29.3,94.6,29,94.3,28.7,94.3z"/>
		<path id="XMLID_3_" class="st1" d="M25.6,86.8c0.3,0,0.6-0.3,0.6-0.6v-5.6c0-0.3-0.3-0.6-0.6-0.6c-0.3,0-0.6,0.3-0.6,0.6v5.6
			C25,86.6,25.3,86.8,25.6,86.8z"/>
		<circle id="XMLID_2_" class="st1" cx="273.2" cy="72.1" r="3.7"/>
		<circle id="XMLID_1_" class="st1" cx="25.6" cy="72.1" r="3.7"/>
	</g>
</g>
</svg>
